<?xml version="1.0" standalone="no"?><!DOCTYPE svg PUBLIC "-//W3C//DTD SVG 1.1//EN" "http://www.w3.org/Graphics/SVG/1.1/DTD/svg11.dtd"><svg t="1551155707703" class="icon" style="" viewBox="0 0 1365 1024" version="1.1" xmlns="http://www.w3.org/2000/svg" p-id="3572" xmlns:xlink="http://www.w3.org/1999/xlink" width="39.990234375" height="30"><defs><style type="text/css"></style></defs><path d="M681.866667 34.666667C417.866667 34.666667 204 248.533333 204 512.533333s213.866667 477.866667 477.866667 477.866667 477.866667-213.866667 477.866666-477.866667S945.733333 34.666667 681.866667 34.666667z m265.866666 346.266666l-314.666666 314.533334c-7.066667 7.066667-16.4 10.666667-25.733334 10.666666s-18.666667-3.6-25.733333-10.666666L416 529.733333c-14.266667-14.133333-14.266667-37.2 0-51.466666a36.293333 36.293333 0 0 1 51.466667 0l140 140L896.4 329.333333a36.293333 36.293333 0 0 1 51.466667 0c14 14.4 14 37.333333-0.133334 51.6z m0 0" fill="#52CE52" p-id="3573"></path></svg>