<?xml version="1.0" encoding="utf-8"?>
<!-- Generator: Adobe Illustrator 23.0.0, SVG Export Plug-In . SVG Version: 6.00 Build 0)  -->
<svg version="1.1" id="图层_1" xmlns="http://www.w3.org/2000/svg" xmlns:xlink="http://www.w3.org/1999/xlink" x="0px" y="0px"
	 viewBox="0 0 167.5 26.6" style="enable-background:new 0 0 167.5 26.6;" xml:space="preserve">
<style type="text/css">
	.st0{fill:#1AAA6F;}
	.st1{fill:#FFFFFF;}
</style>
<title>ecmp-logo</title>
<g>
	<path class="st0" d="M18.1,7.4c0,0-0.5,0.4-1.4,1c-1,0.6-1.4,1.3-1.4,2c0,0.5,0.4,1.5,1.3,2.9c0.9,1.5,1.3,2.8,1.3,4
		c0,1.4-0.3,2.7-1,3.8c-0.7,1.2-2,2.3-4,3.5c-1.6,0.9-3.3,1.7-4.9,2.2c-0.1,0-0.3,0.1-0.3,0.1c-0.1,0-0.3-0.1-0.4-0.4
		c-0.1-0.2-0.7-1.3-1.9-3.5c-1.1-2.1-1.7-3.1-1.7-3.1c0-0.1,0.4-0.3,1.1-0.8c0.9-0.5,1.6-1,2.1-1.5c0.7-0.7,1.1-1.5,1.1-2.2
		c0-0.7-0.2-1.4-0.7-2.1c-0.9-1.3-1.4-1.9-1.4-2c-0.5-0.9-0.7-2-0.7-3.2c0-2.1,1-3.8,2.9-5.1c1.6-1.1,3.5-1.8,5.8-2.1
		c0.4-0.1,0.6-0.1,0.5-0.1c0.1,0,0.1,0.1,0.2,0.4c0.5,1.2,1.7,3.3,3.6,6.2C18,7.3,18.1,7.4,18.1,7.4z"/>
	<path class="st1" d="M39.2,18.2c0,0.4-0.1,0.9-0.2,1.6c-0.2,1-0.3,1.5-0.3,1.6c-0.1,0.8-0.3,1.9-0.6,3.4c-0.1,0.3-0.3,0.4-0.6,0.4
		c-0.1,0-0.3,0-0.5-0.1c-2-0.3-4.6-0.4-7.8-0.4c-0.9,0-2.2,0-4,0.1s-3.1,0.1-4,0.1c-0.4,0-0.6-0.2-0.6-0.5c0-1.2,0.1-3.1,0.2-5.6
		c0.1-2.5,0.2-4.4,0.2-5.6c0-1.3-0.1-3.6-0.2-7.1c0-0.9-0.1-2.2-0.2-4l0-0.2c0-0.3,0.1-0.4,0.4-0.4c0.9,0,2.2,0,3.9,0.1
		c1.7,0,3.1,0.1,3.9,0.1c0.9,0,2.2,0,4-0.1c1.8,0,3.1-0.1,4-0.1c0.6,0,1,0.3,1.1,0.9c0.1,0.2,0.2,1.2,0.3,2.9s0.3,2.7,0.3,3
		c0,0.2-0.1,0.3-0.4,0.3c-0.6,0-1.5-0.1-2.7-0.2c-1.2-0.1-2.1-0.2-2.7-0.2c-1,0-1.6,0-1.7,0c-0.9,0.1-1.3,0.3-1.3,0.7
		c0,0.5,0.5,0.9,1.6,1c0.3,0,1,0.1,2.1,0.1c0.9,0,1.8,0,2.7-0.1c1.1-0.1,1.6-0.2,1.4-0.2c0.3,0,0.4,0.2,0.4,0.5
		c0,0.3-0.1,0.8-0.2,1.4c-0.1,0.8-0.2,1.3-0.2,1.5c-0.1,1.5-0.2,2.6-0.2,3.2c0,0.2-0.2,0.4-0.5,0.4c0.1,0-0.4-0.1-1.5-0.2
		c-1.2-0.1-2.6-0.2-4.1-0.2c-1,0-1.5,0.3-1.5,0.8c0,0.3,0.1,0.5,0.2,0.6c0.3,0.3,2,0.4,5,0.4c0.4,0,1,0,1.8-0.1s1.4-0.1,1.8-0.1
		C39.1,17.8,39.2,17.9,39.2,18.2z"/>
	<path class="st1" d="M61.7,4.8c0,0.2-0.5,1.3-1.6,3.2c-1.1,1.9-1.7,2.9-1.9,3.1c-0.2,0.1-0.3,0.2-0.5,0.2c-0.1,0-0.3-0.2-0.7-0.6
		c-0.5-0.4-1-0.8-1.5-1c-0.8-0.4-1.6-0.5-2.4-0.5c-1.1,0-2,0.4-2.7,1.2c-0.7,0.8-1.1,1.7-1.1,2.8c0,1.1,0.4,2,1.1,2.8
		c0.7,0.8,1.6,1.2,2.7,1.2c1.8,0,3.2-0.5,4.1-1.6c0.2-0.2,0.3-0.3,0.4-0.3c0.1,0,0.8,0.9,2,2.7c1.2,1.8,1.9,2.9,1.9,3.2
		c0,0.2-0.1,0.5-0.4,0.8c-0.9,1.1-2.1,2-3.7,2.7c-1.5,0.6-3,0.9-4.5,0.9c-3.4,0-6.4-1.2-8.8-3.6c-2.4-2.4-3.6-5.3-3.6-8.7
		c0-3.4,1.2-6.4,3.6-8.8c2.4-2.4,5.3-3.6,8.8-3.6c3.5,0,6.3,1.1,8.5,3.3C61.6,4.4,61.7,4.6,61.7,4.8z"/>
	<path class="st1" d="M84.5,1.9c0,1.3-0.1,3.2-0.2,5.8c-0.1,2.6-0.2,4.5-0.2,5.8c0,0.4,0,0.9,0,1.6c0,0.7,0,1.3,0,1.6
		c0,3.1-0.4,5.2-1.3,6.2c-1.3,1.6-4.6,2.4-9.8,2.4c-2.9,0-5.1-0.3-6.5-0.9c-1.3-0.6-2.2-1.5-2.6-2.8c-0.3-1-0.5-2.6-0.5-4.9
		c0-0.3,0-0.9,0-1.6c0-0.7,0-1.3,0-1.7c0-1.3-0.1-3.2-0.2-5.8c-0.1-2.6-0.2-4.5-0.2-5.8c0-0.2,0.1-0.4,0.4-0.4c0.8,0,2.1,0,3.7,0
		s2.9,0,3.7,0c0.7,0,1,0,0.8,0c0.4,0,0.6,0.2,0.6,0.4c0,1.3-0.1,3.2-0.2,5.8c-0.1,2.6-0.2,4.5-0.2,5.8c0,0.1,0,0.4,0,0.8
		c0,0.4,0,0.6,0,0.8c0,2.2,0.7,3.2,2,3.2c1.1,0,1.6-0.8,1.6-2.5c0-1.5,0-3.8-0.1-6.8s-0.1-5.3-0.1-6.8c0-0.3,0.1-0.5,0.3-0.5
		c0.4,0,1.1-0.1,2.1,0c1.3,0,2.1,0.1,2.2,0.1c0.5,0,1.2,0,2.1-0.1c0.9,0,1.6-0.1,2.1-0.1C84.4,1.5,84.5,1.6,84.5,1.9z"/>
	<path class="st1" d="M108.9,24.7c0,0.1-0.2,0.2-0.5,0.2c-0.5,0-1.2,0-2.2-0.1c-1,0-1.7-0.1-2.2-0.1c-0.5,0-1.2,0-2.1,0.1
		s-1.6,0.1-2.1,0.1c-0.4,0-0.6-0.1-0.8-0.4c-0.2-0.5-0.5-1.3-0.9-2.3c-0.4-0.9-0.9-2.3-1.6-4.2c-0.2-0.5-0.3-0.7-0.4-0.7
		c-0.1,0-0.2,0.2-0.2,0.6c0,0.8,0.1,1.9,0.2,3.4c0.2,1.5,0.2,2.6,0.2,3.3c0,0.3-0.1,0.4-0.3,0.4c-0.1,0-0.2,0-0.4-0.1
		c-1-0.1-2.4-0.2-4.3-0.2c-0.4,0-1.1,0-1.9,0.1s-1.5,0.1-1.9,0.1c-0.4,0-0.6-0.2-0.6-0.5c0-1.2,0.1-3.1,0.2-5.6s0.2-4.4,0.2-5.6
		c0-3.2-0.2-6.9-0.5-11.1l0-0.2c0-0.2,0.1-0.4,0.3-0.4c0,0,0.2,0,0.6,0c1.2,0,3,0,5.5-0.1c2.5,0,4.3-0.1,5.5-0.1
		c2.6,0,4.8,0.6,6.5,1.7c2,1.3,3,3.2,3,5.7c0,1.6-0.2,2.9-0.7,3.9c-0.5,1-1.3,1.9-2.6,2.8c-0.3,0.2-0.4,0.4-0.4,0.6
		c0,0.1,0.7,1.6,2.1,4.4C108.2,23.1,108.9,24.6,108.9,24.7z M99.4,9.9c0-1.3-0.9-1.9-2.8-1.9C96.2,8,96,8.7,96,10.1
		c0,0.2,0,0.4,0,0.8s0,0.6,0,0.8c0,0.2,0.2,0.3,0.7,0.3C98.5,11.8,99.4,11.2,99.4,9.9z"/>
	<path class="st1" d="M119.9,24.4c0,0.3-0.2,0.5-0.5,0.5c-0.5,0-1.2,0-2.2-0.1c-1-0.1-1.7-0.1-2.2-0.1c-0.5,0-1.1,0-2.1,0.1
		s-1.6,0.1-2.1,0.1c-0.4,0-0.6-0.2-0.6-0.5c0-1.4,0.1-3.4,0.2-6.2c0.1-2.7,0.2-4.8,0.2-6.2c0-1.1-0.1-2.9-0.2-5.2
		c-0.1-2.3-0.2-4-0.2-5.1c0-0.2,0.1-0.4,0.4-0.4c0.5,0,1.2,0,2.2,0.1c1,0,1.7,0.1,2.2,0.1c0.5,0,1.2,0,2.1-0.1
		c0.9,0,1.6-0.1,2.1-0.1c0.3,0,0.4,0.1,0.4,0.4c0,1.1-0.1,2.8-0.2,5.1s-0.2,4-0.2,5.1c0,1.4,0.1,3.4,0.2,6.2
		C119.9,21,119.9,23.1,119.9,24.4z"/>
	<path class="st1" d="M139.6,8.2c0,0.2-0.1,0.3-0.4,0.3c0.3,0-1.1-0.1-4.2-0.3c0,2-0.1,3.2-0.1,3.8c0,1.4,0.1,3.4,0.2,6.2
		c0.1,2.7,0.2,4.8,0.2,6.2c0,0.3-0.2,0.5-0.5,0.5c-0.5,0-1.2,0-2.1-0.1c-1-0.1-1.7-0.1-2.2-0.1c-0.5,0-1.1,0-2.1,0.1
		c-0.9,0-1.6,0.1-2.1,0.1c-0.4,0-0.6-0.2-0.6-0.5c0-1.4,0.1-3.4,0.2-6.2s0.2-4.8,0.2-6.2c0-0.5,0-1.8-0.1-3.7
		c-1,0.1-2.5,0.2-4.4,0.4c-0.2-0.1-0.3-0.1-0.3-0.2c0-0.1,0.1-0.7,0.3-1.7c0.2-1.1,0.3-1.7,0.4-1.9c0-1,0.1-2.3,0.3-3.7
		c0-0.1,0.1-0.1,0.3-0.1c0,0,0.1,0,0.3,0c2.2,0.2,5,0.4,8.2,0.4c1,0,2.9-0.1,5.6-0.4c1.4-0.1,2.1-0.2,2.2-0.2c0.3,0,0.5,0.1,0.5,0.3
		c0,0.4,0,1-0.1,1.8s-0.1,1.4-0.1,1.8c0,0.4,0.1,0.9,0.2,1.7S139.6,7.9,139.6,8.2z"/>
	<path class="st1" d="M161.8,1.9c0,0.6,0,1.5-0.1,2.7s-0.1,2.1-0.1,2.7s-0.1,1.1-0.3,1.4c-1.6,3.6-3.4,6.6-5.3,9.1
		c-0.4,0.5-0.6,1-0.6,1.3c0,0.6,0,1.5,0.1,2.7c0.1,1.2,0.1,2.1,0.1,2.6c0,0.3-0.2,0.5-0.5,0.5c-0.5,0-1.2,0-2.2-0.1
		c-1-0.1-1.7-0.1-2.2-0.1c-0.5,0-1.2,0-2.1,0.1s-1.6,0.1-2.1,0.1c-0.4,0-0.6-0.2-0.6-0.5c0-0.6,0.1-1.5,0.2-2.6s0.2-2.1,0.2-2.7
		c0-0.4-0.1-0.8-0.4-1.3c-0.7-1-1.6-2.6-2.8-4.5c-0.7-1.2-1.5-2.6-2.2-4c-0.2-0.5-0.4-0.8-0.4-1.2c0-0.6-0.1-1.6-0.2-3
		c-0.1-1.3-0.2-2.3-0.2-3c0-0.4,0.1-0.6,0.4-0.6c0.4,0,1.1,0,2,0.1c0.9,0,1.5,0.1,2,0.1c0.5,0,1.3,0,2.4-0.1
		c1.1-0.1,1.9-0.1,2.4-0.1c0.2,0,0.3,0.1,0.3,0.4c0,1.6-0.1,3.3-0.1,4.9c0,0.3,0.2,0.8,0.6,1.5c0.3,0.6,0.6,1.1,0.9,1.3
		c0.2-0.3,0.5-0.7,0.9-1.3c0.4-0.7,0.6-1.1,0.6-1.4c0-0.6,0-1.4-0.1-2.5c-0.1-1.1-0.1-1.9-0.1-2.5c0-0.2,0.1-0.4,0.3-0.4
		c0.5,0,1.2,0,2.2,0.1c1,0.1,1.7,0.1,2.2,0.1c0.5,0,1.3,0,2.3-0.1c1,0,1.8-0.1,2.3-0.1C161.7,1.5,161.8,1.6,161.8,1.9z"/>
</g>
</svg>
