<svg id="图层_1" data-name="图层 1" xmlns="http://www.w3.org/2000/svg" viewBox="0 0 158.33 26.12"><defs><style>.cls-1{fill:#1aaa6f;}</style></defs><title>ecmp-logo-black</title><path class="cls-1" d="M18.06,7.4a11,11,0,0,1-1.43,1,2.62,2.62,0,0,0-1.43,2,8,8,0,0,0,1.29,2.95,8.05,8.05,0,0,1,1.28,3.95,7.17,7.17,0,0,1-1,3.81,11,11,0,0,1-4,3.46,22.42,22.42,0,0,1-4.94,2.16,2,2,0,0,1-.34.05c-.13,0-.26-.13-.38-.37L5.21,23c-1.13-2.08-1.69-3.12-1.69-3.15A4,4,0,0,1,4.62,19a11,11,0,0,0,2.06-1.45,3.14,3.14,0,0,0,1.1-2.24A3.7,3.7,0,0,0,7,13.24c-.9-1.3-1.36-2-1.37-2A6.55,6.55,0,0,1,4.94,8.1,6.07,6.07,0,0,1,7.88,3,13.2,13.2,0,0,1,13.7.82q.62-.09.51-.09c.06,0,.14.13.24.37A44.38,44.38,0,0,0,18,7.25.37.37,0,0,1,18.06,7.4Z" transform="translate(-3.52 -0.73)"/><path d="M39.23,18.22A8.51,8.51,0,0,1,39,19.84c-.2,1-.32,1.5-.34,1.62-.09.77-.27,1.9-.55,3.39-.05.26-.26.39-.62.39a3.77,3.77,0,0,1-.47,0,59.55,59.55,0,0,0-7.8-.41c-.89,0-2.22,0-4,.07s-3.09.07-4,.07c-.37,0-.55-.16-.55-.49,0-1.24.06-3.12.2-5.62s.2-4.38.2-5.62-.06-3.64-.19-7.11q0-1.33-.18-4l0-.24c0-.25.12-.38.42-.38.87,0,2.18,0,3.92.07s3.06.06,3.94.06,2.21,0,4-.06,3.12-.07,4-.07a1,1,0,0,1,1.12.85c.06.22.17,1.2.34,2.93s.25,2.73.25,3a.31.31,0,0,1-.35.34c-.61,0-1.51-.07-2.73-.19s-2.13-.18-2.74-.18H31.19c-.86.08-1.3.32-1.3.71s.52.87,1.56,1c.29,0,1,.05,2.13.05.94,0,1.84-.05,2.7-.13a6.85,6.85,0,0,0,1.38-.17c.29,0,.44.16.44.48A10.39,10.39,0,0,1,38,11.58c-.14.79-.21,1.29-.22,1.49-.14,1.49-.22,2.56-.22,3.19,0,.25-.17.37-.52.37a14.63,14.63,0,0,0-1.45-.2,33.53,33.53,0,0,0-4.13-.22c-1,0-1.52.28-1.52.84a.77.77,0,0,0,.2.58c.32.27,2,.4,5,.4.41,0,1,0,1.85-.11s1.43-.11,1.85-.11A.37.37,0,0,1,39.23,18.22Z" transform="translate(-3.52 -0.73)"/><path d="M61.7,4.79A17,17,0,0,1,60.12,8a20.77,20.77,0,0,1-1.9,3.1.79.79,0,0,1-.47.2,3.71,3.71,0,0,1-.73-.56,8.07,8.07,0,0,0-1.52-1,5.69,5.69,0,0,0-2.41-.53,3.6,3.6,0,0,0-2.72,1.16,3.86,3.86,0,0,0-1.11,2.76,3.92,3.92,0,0,0,1.11,2.8,3.58,3.58,0,0,0,2.72,1.18,5.29,5.29,0,0,0,4.14-1.6q.24-.27.36-.27a14.13,14.13,0,0,1,2,2.71,12.83,12.83,0,0,1,1.86,3.24,1.53,1.53,0,0,1-.38.82,8.58,8.58,0,0,1-3.75,2.67A12.35,12.35,0,0,1,44,22a11.84,11.84,0,0,1-3.62-8.73A12,12,0,0,1,44,4.47,12,12,0,0,1,52.82.85,11.53,11.53,0,0,1,61.3,4.11,1.08,1.08,0,0,1,61.7,4.79Z" transform="translate(-3.52 -0.73)"/><path d="M84.51,1.87c0,1.29-.05,3.23-.16,5.81s-.16,4.51-.16,5.81c0,.36,0,.91,0,1.63s0,1.27,0,1.64q0,4.65-1.34,6.2-2,2.41-9.81,2.41a17.78,17.78,0,0,1-6.5-.89,4.47,4.47,0,0,1-2.64-2.77,16.71,16.71,0,0,1-.5-4.9c0-.32,0-.85,0-1.59V13.49c0-1.3-.05-3.24-.16-5.83s-.16-4.53-.16-5.82c0-.25.14-.37.41-.37l3.73,0,3.74,0c.71,0,1,0,.82,0,.37,0,.56.15.56.37,0,1.28,0,3.21-.17,5.78S72,12.17,72,13.45c0,.15,0,.4,0,.75s0,.63,0,.82c0,2.15.66,3.23,2,3.23q1.62,0,1.62-2.49,0-2.28-.14-6.84c-.1-3-.14-5.32-.14-6.83,0-.34.09-.51.28-.52a16.26,16.26,0,0,1,2.09,0l2.17.05c.47,0,1.17,0,2.11-.06s1.64-.07,2.1-.07C84.37,1.47,84.51,1.6,84.51,1.87Z" transform="translate(-3.52 -0.73)"/><path d="M108.9,24.73c0,.13-.15.19-.45.19-.49,0-1.22,0-2.19-.07s-1.68-.07-2.16-.07-1.16,0-2.08.07-1.61.07-2.06.07a.75.75,0,0,1-.76-.42c-.2-.5-.49-1.26-.87-2.27s-.89-2.3-1.57-4.16c-.15-.48-.3-.72-.43-.72s-.15.18-.15.55c0,.76.07,1.89.22,3.41s.23,2.63.23,3.34q0,.39-.33.39a2.53,2.53,0,0,1-.42-.06,35.16,35.16,0,0,0-4.35-.2c-.42,0-1.06,0-1.91.07s-1.49.07-1.92.07-.55-.16-.55-.49c0-1.24.07-3.12.2-5.62s.2-4.38.2-5.62q0-4.78-.46-11.1l0-.24a.32.32,0,0,1,.32-.38H88c1.22,0,3,0,5.5-.05s4.29,0,5.52,0A11.66,11.66,0,0,1,105.49,3a6.4,6.4,0,0,1,3,5.67,9.06,9.06,0,0,1-.71,3.88,7.8,7.8,0,0,1-2.59,2.8c-.26.19-.4.38-.4.56s.69,1.6,2.07,4.41S108.9,24.61,108.9,24.73ZM99.44,9.89c0-1.26-.93-1.89-2.78-1.89-.45,0-.68.7-.68,2.09,0,.17,0,.42,0,.76s0,.58,0,.75.23.25.69.25C98.53,11.85,99.44,11.2,99.44,9.89Z" transform="translate(-3.52 -0.73)"/><path d="M119.91,24.43c0,.34-.16.5-.48.5-.48,0-1.2,0-2.17-.07s-1.69-.08-2.18-.08-1.14,0-2.06.07-1.61.07-2.07.07-.55-.16-.55-.49q0-2,.17-6.15t.17-6.16c0-1.15-.06-2.87-.16-5.16s-.16-4-.16-5.12c0-.25.13-.37.4-.37.49,0,1.23,0,2.21.07s1.73.06,2.24.06,1.17,0,2.1-.06,1.63-.07,2.09-.07c.29,0,.43.13.43.4,0,1.14,0,2.84-.15,5.12s-.16,4-.16,5.13q0,2.06.16,6.16C119.86,21,119.91,23.07,119.91,24.43Z" transform="translate(-3.52 -0.73)"/><path d="M139.58,8.24q0,.33-.36.33c.27,0-1.12-.08-4.18-.25,0,2-.07,3.23-.07,3.8q0,2.06.18,6.16t.17,6.15a.44.44,0,0,1-.5.5c-.47,0-1.18,0-2.14-.07s-1.68-.08-2.16-.08-1.14,0-2.05.07-1.6.07-2.06.07-.55-.16-.55-.49q0-2,.18-6.15t.17-6.16c0-.55,0-1.78-.06-3.7-1,.07-2.46.19-4.42.37-.17-.08-.26-.13-.26-.15s.09-.69.28-1.71.33-1.75.35-1.93c0-1,.15-2.26.34-3.7,0-.09.11-.13.25-.13l.26,0a75.83,75.83,0,0,0,8.23.37q1.48,0,5.58-.39L139,1c.33,0,.5.09.5.25,0,.41,0,1-.08,1.82s-.09,1.41-.09,1.81a14,14,0,0,0,.15,1.69A14,14,0,0,1,139.58,8.24Z" transform="translate(-3.52 -0.73)"/><path d="M161.85,1.87c0,.6,0,1.51-.09,2.72s-.08,2.13-.08,2.73a3.42,3.42,0,0,1-.25,1.44,44.18,44.18,0,0,1-5.3,9.1,2.43,2.43,0,0,0-.62,1.28c0,.59,0,1.47.12,2.65s.12,2.06.12,2.64a.44.44,0,0,1-.49.5c-.48,0-1.2,0-2.16-.07s-1.69-.08-2.17-.08-1.16,0-2.08.07-1.61.07-2.06.07-.55-.16-.55-.49c0-.58,0-1.46.16-2.64s.17-2.06.17-2.65a3.09,3.09,0,0,0-.4-1.34c-.67-1.05-1.62-2.56-2.84-4.55q-1.08-1.82-2.23-4a2.86,2.86,0,0,1-.38-1.17c0-.6-.08-1.6-.22-3s-.18-2.29-.18-3c0-.42.13-.62.38-.62.44,0,1.09,0,2,.07s1.53.06,2,.06,1.32,0,2.39-.07,1.87-.08,2.39-.08c.17,0,.25.12.25.37,0,1.65-.06,3.28-.06,4.88a3.76,3.76,0,0,0,.6,1.47,7.25,7.25,0,0,0,.9,1.34A9.32,9.32,0,0,0,152,8.22a3.64,3.64,0,0,0,.57-1.4c0-.56,0-1.4-.11-2.51s-.11-1.94-.11-2.49c0-.25.08-.37.25-.37.48,0,1.2,0,2.16.08s1.67.07,2.15.07,1.26,0,2.28-.06,1.77-.07,2.27-.07C161.71,1.47,161.85,1.6,161.85,1.87Z" transform="translate(-3.52 -0.73)"/></svg>