<?xml version="1.0" encoding="utf-8"?>
<!-- Generator: Adobe Illustrator 23.0.0, SVG Export Plug-In . SVG Version: 6.00 Build 0)  -->
<svg version="1.1" id="图层_1" xmlns="http://www.w3.org/2000/svg" xmlns:xlink="http://www.w3.org/1999/xlink" x="0px" y="0px"
	 viewBox="0 0 26.5 26.6" style="enable-background:new 0 0 26.5 26.6;" xml:space="preserve">
<style type="text/css">
	.st0{fill:#1AAA6F;}
	.st1{fill:#FFFFFF;}
</style>
<title>ecmp-logo</title>
<rect x="-3.5" y="-2" class="st0" width="33.5" height="33.5"/>
<g>
	<path class="st1" d="M20.2,7c0,0-0.5,0.4-1.3,0.9c-0.9,0.6-1.3,1.2-1.3,1.9c0,0.5,0.4,1.4,1.2,2.7c0.8,1.4,1.2,2.6,1.2,3.8
		c0,1.3-0.3,2.5-0.9,3.6c-0.7,1.1-1.9,2.2-3.8,3.3c-1.5,0.8-3.1,1.6-4.6,2.1c-0.1,0-0.3,0.1-0.3,0.1c-0.1,0-0.3-0.1-0.4-0.4
		c-0.1-0.2-0.7-1.2-1.8-3.3c-1-2-1.6-2.9-1.6-2.9c0-0.1,0.4-0.3,1-0.8c0.8-0.5,1.5-0.9,2-1.4c0.7-0.7,1-1.4,1-2.1s-0.2-1.3-0.7-2
		c-0.8-1.2-1.3-1.8-1.3-1.9c-0.5-0.8-0.7-1.9-0.7-3c0-2,0.9-3.6,2.7-4.8c1.5-1,3.3-1.7,5.5-2c0.4-0.1,0.6-0.1,0.5-0.1
		c0.1,0,0.1,0.1,0.2,0.4C17.4,2.3,18.5,4.3,20.2,7C20.1,6.9,20.2,7,20.2,7z"/>
</g>
</svg>
