<?xml version="1.0" standalone="no"?><!DOCTYPE svg PUBLIC "-//W3C//DTD SVG 1.1//EN" "http://www.w3.org/Graphics/SVG/1.1/DTD/svg11.dtd"><svg t="1553351153614" class="icon" style="" viewBox="0 0 4088 1024" version="1.1" xmlns="http://www.w3.org/2000/svg" p-id="5085" xmlns:xlink="http://www.w3.org/1999/xlink" width="798.4375" height="200"><defs><style type="text/css"></style></defs><path d="M293.628698 0h374.150927c52.262713 0 84.713417 42.584433 72.53017 94.8851l-174.209044 748.036175c-12.297109 52.262713-64.521868 94.8851-116.822535 94.8851H75.089336c-52.224759 0-84.713417-42.584433-72.530171-94.8851l174.284952-747.694589c12.221201-52.452483 64.521868-94.8851 116.784581-94.8851z" fill="#E1002A" p-id="5086"></path><path d="M636.657312 0H1066.90431c52.224759 0 28.693254 42.584433 16.434099 94.8851l-174.209044 747.884359c-12.221201 52.262713-8.387843 94.8851-60.726464 94.8851H418.155903c-52.338621 0-84.713417-42.584433-72.416308-94.8851l174.133136-747.694589c12.335063-52.452483 64.521868-94.8851 116.784581-94.8851z" fill="#004280" p-id="5087"></path><path d="M1050.014762 0h374.075018c52.300667 0 84.789325 42.584433 72.530171 94.8851L1322.334999 842.921275c-12.221201 52.262713-64.521868 94.8851-116.898443 94.8851h-373.999111c-52.376575 0-84.789325-42.584433-72.492216-94.8851l174.095181-747.694589c12.259155-52.452483 64.521868-94.8851 116.86049-94.8851z" fill="#007A8A" p-id="5088"></path><path d="M987.352642 703.478132h35.297257l10.209637-33.892958h-35.221349l-10.285545 33.892958z m28.237805-93.594663l-12.069384 40.117421a170.375686 170.375686 0 0 1 20.571089-8.995108c7.249222-1.707932 18.255893-3.036323 18.255894-3.036323l8.539659-28.08599z m17.572721-57.690141l-11.727798 38.561305a194.856042 194.856042 0 0 1 20.305411-7.89444 120.769755 120.769755 0 0 1 18.142031-2.618829l8.425797-28.048036z m77.995552 0l-45.544848 150.905264h12.259155l-9.526464 31.160266h-12.259155l-2.884507 9.678281h-43.381468l2.960415-9.678281h-88.015418l8.881245-28.883024h8.919199l46.265975-153.182506 9.184878-30.970496h44.330319l-4.668347 15.59911a83.04344 83.04344 0 0 1 23.000148-11.386212c11.120534-2.960415 75.300815-4.061082 75.300815-4.061082l-9.450556 30.780726z" fill="#FFFFFF" p-id="5089"></path><path d="M1130.667097 521.48851h47.290734l0.531356 17.648629c-0.303632 2.960415 2.239288 4.364715 7.590808 4.364714h9.602372l-8.767383 29.072795h-25.543069c-22.127205 1.632024-30.363232-7.856486-29.945737-18.559526l-0.910897-32.526612zM1136.929513 659.413491h-45.165307l7.590808-25.884655h51.465678l7.401038-23.607413h-50.858414l8.729429-29.186657h141.492662l-8.9192 29.186657h-47.138917l-7.590808 23.607413h47.594366l-7.818533 25.884655h-51.38977l-9.108969 10.930764h21.026538l5.085841 32.60252a17.952261 17.952261 0 0 0 1.669978 6.75582c1.024759 1.176575 7.287176 1.707932 10.968718 1.707931h6.262416l-9.602372 31.767532h-16.054559c-2.504967 0-6.148554 0-11.196442-0.455449a30.856635 30.856635 0 0 1-11.386212-4.782209 15.750927 15.750927 0 0 1-8.387843-11.120533l-5.313565-32.526613-23.417643 31.957302a39.92765 39.92765 0 0 1-34.462268 17.838399h-32.754337l8.577613-28.313714h12.524833a20.495182 20.495182 0 0 0 9.146924-2.618829 14.080949 14.080949 0 0 0 6.945589-5.769014l34.158636-48.087769zM643.640855 588.591253H762.892449l-8.767383 28.46553h-47.746183l-7.363083 24.214677h48.732987l-8.957153 29.414381h-48.695034l-11.803706 39.434248c-1.442254 4.326761 11.386212 4.971979 16.244329 4.971979l24.404448-3.377909-9.754189 32.488658h-54.995404a53.135656 53.135656 0 0 1-12.524833-1.669978 13.094144 13.094144 0 0 1-8.767383-6.376279c-1.97361-3.264047-5.047887-5.882876-2.922461-12.714603l15.750926-52.300667H618.667097l8.957153-29.86983h27.251001l7.211268-24.214677h-27.061231l8.615567-28.46553zM723.951604 537.429207h48.998666l-8.9192 29.755967h-66.988881l-7.249221 6.262417c-3.074277 3.036323-4.13699 1.745886-8.236027 3.985174a49.340252 49.340252 0 0 1-22.013343 5.617198h-21.444033l8.691475-28.579392h6.490141a23.038102 23.038102 0 0 0 11.006672-1.669978 26.567828 26.567828 0 0 0 7.211268-9.29874l12.259154-22.316975h48.65708l-8.501705 16.244329z" fill="#FFFFFF" p-id="5090"></path><path d="M817.811945 586.351964a77.046701 77.046701 0 0 1 36.1702-16.130467c5.199703-1.024759 37.726316-0.683173 37.726316-0.683172l4.896071-16.358192h-68.848629l-9.943958 33.171831z m64.521868 12.48688h-68.317272l-4.174945 13.739362h59.132395a54.160415 54.160415 0 0 1 8.995107-0.18977l4.402669-13.549592z m-88.508821-77.350334h41.749444l-6.072647 21.026538a123.312676 123.312676 0 0 1 22.392884-14.308673 211.024463 211.024463 0 0 1 29.907783-6.490141l67.444329-0.341586-22.772424 76.515345a91.089696 91.089696 0 0 1-11.386212 25.429206 28.84507 28.84507 0 0 1-11.386212 10.475315 43.419422 43.419422 0 0 1-15.675018 5.275612c-4.440623 0.303632-11.386212 0.493403-20.722906 0.569311h-64.977316l-18.369756 60.536693c-1.707932 5.996738-2.580875 8.881245-1.442253 10.475316a7.590808 7.590808 0 0 0 6.262416 3.074277l28.617346-2.694737-9.792142 33.171831h-32.071164c-10.171683 0-17.610675-0.18977-22.772424-0.607265s-10.133729 0-13.549592-2.656783-7.590808-6.072646-7.590808-9.640326a117.353892 117.353892 0 0 1 3.795404-16.206375l58.373314-193.565604z" fill="#FFFFFF" p-id="5091"></path><path d="M915.353828 645.02891l-3.795404 18.369756a25.277391 25.277391 0 0 1-7.590808 13.777316 29.983692 29.983692 0 0 1-22.430838 7.932395l-23.076056 0.910897-0.18977 20.798813c-0.303632 5.882876 1.252483 5.275612 2.201334 6.224463a8.425797 8.425797 0 0 0 3.074277 1.859748l7.287176-0.37954 22.051297-1.252484-9.071016 30.363232h-25.353298c-17.762491 0-30.932543-0.417494-35.259303-3.795404-4.212898-2.694737-4.820163-6.1106-4.706301-11.917568l1.594069-80.993922h40.459007l-0.531357 16.547962h9.754189a13.739362 13.739362 0 0 0 6.945589-1.21453 8.160119 8.160119 0 0 0 2.770645-4.250852l3.795404-12.904374zM337.883109 238.920682c-1.442254 6.528095-27.402817 126.386953-27.478725 126.424907-5.617198 24.214678-9.640326 41.749444-23.417643 52.680208a42.242847 42.242847 0 0 1-27.668495 9.640326c-17.00341 0-26.985322-8.501705-28.693254-24.556264l-0.417495-5.503336s5.161749-32.526612 5.199704-32.640474 27.288955-109.231727 32.147071-123.616308c0-0.834989 0.303632-1.214529 0.417495-1.632024-53.135656 0.493403-62.510304 0-63.117569-0.797035-0.303632 1.062713-1.707932 7.89444-1.707931 7.89444l-27.820312 122.97109-2.429058 10.513269-4.516531 34.158636a50.137287 50.137287 0 0 0 5.92083 25.353299c12.676649 22.203113 48.84685 25.467161 69.266123 25.467161 26.567828 0 51.086138-5.617198 67.747962-15.788881 28.996887-17.155226 36.663603-43.988732 43.419421-67.747961l3.112232-12.183247s28.123944-113.444626 32.944106-128.170793a5.427428 5.427428 0 0 1 0.379541-1.632024c-38.409489 0.417494-49.757746 0-53.401334-0.797035zM493.153086 464.064047c-18.78725-0.265678-25.429207-0.265678-47.404596 0.797035l-0.872942-1.632023c1.935656-8.349889 3.985174-16.62387 5.844922-25.087621l2.732691-11.386212c4.061082-17.838399 8.046256-38.561305 8.501705-44.823721 0.37954-3.795404 1.707932-13.321868-9.184878-13.321868a36.246108 36.246108 0 0 0-14.118903 4.440622c-2.656783 9.48851-8.008302 36.094292-10.551223 48.239585-5.427428 25.581023-5.806968 28.46553-8.236027 41.104226l-1.59407 1.707931c-19.394514-0.265678-26.074426-0.265678-48.429355 0.797035l-1.024759-1.821794c3.795404-15.181616 7.590808-30.363232 11.006672-45.544848a674.633062 674.633062 0 0 0 14.194811-77.88169l1.745886-1.290437c21.747665-2.998369 27.023277-3.605634 50.592735-8.463751l1.97361 2.239288-3.56768 13.132098c3.985174-2.391105 7.780578-4.782209 11.879615-6.907635a74.010378 74.010378 0 0 1 30.363232-7.021498c10.285545 0 21.557895 2.884507 26.264196 14.802076 4.516531 10.627131 1.556116 23.721275-4.326761 49.567976l-3.074277 13.132098c-5.996738 28.693254-6.983543 33.968866-10.361453 53.667013l-2.239288 1.707932zM569.630477 464.064047c-11.386212 0-18.673388-0.265678-25.770793 0s-14.005041 0.417494-24.51831 0.872943l-0.607265-0.872943-0.683172-0.948851a147.147813 147.147813 0 0 1 5.882876-18.559525 135.382061 135.382061 0 0 0 5.313566-18.78725c3.264047-14.384581 5.35152-24.480356 6.717865-33.285693s2.429059-15.826835 3.491771-24.252632l0.872943-0.645218 0.910897-0.797035c11.386212-1.632024 18.483617-2.656783 25.770793-3.795404s14.802076-2.467013 26.567828-4.706301l0.417495 1.024759 0.37954 0.986805c-2.201334 8.957153-4.364715 17.838399-6.528095 26.947368s-4.250852 17.876353-6.262416 26.833507c-4.250852 18.97702-5.92083 26.036471-6.907636 31.084359s-1.252483 7.590808-2.922461 17.269088l-1.024759 0.872943-1.024759 0.834989zM689.451381 397.189029c-0.986805 4.858117-5.237658 23.000148-11.044625 30.742772-4.023128 5.655152-8.805337 9.071016-14.080949 9.071016-1.556116 0-10.816901 0-10.968718-13.777317a91.089696 91.089696 0 0 1 2.960416-21.406078c4.971979-21.937435 10.854855-40.307191 25.732839-40.307191 11.765752 0 12.524833 13.663454 7.590808 35.676798z m49.340253 2.087472c6.604003-28.958933 1.518162-42.470571-4.97198-50.744551-9.792142-12.524833-27.099185-16.547961-45.051445-16.547962-10.778947 0-36.473832 1.062713-56.627428 19.660193-14.346627 13.321868-21.064492 31.463899-25.08762 48.808895s-8.767383 49.681838 20.571089 61.523499a86.99066 86.99066 0 0 0 30.363232 4.896071c21.481987 0 43.49533-5.92083 60.043292-23.455596 12.828466-14.308673 18.673388-35.487027 20.646997-44.140549zM1198.718691 465.999703c-22.772424-0.18977-29.224611-0.18977-50.251149 0.683173l-1.366346-1.707932c5.769014-21.557895 11.386212-43.115789 16.547962-64.901408a493.40252 493.40252 0 0 0 10.24759-56.93106l1.707932-1.4043c22.5447-3.264047 28.807116-4.13699 52.262713-8.501705l0.759081 1.973611c-4.288807 17.762491-8.577613 35.524981-12.714603 53.36338-8.653521 37.346775-11.84166 56.323795-15.181616 75.90808l-2.087472 1.59407z" fill="#FFFFFF" p-id="5092"></path><path d="M1164.598009 399.845812c-1.100667 4.630393-5.35152 22.962194-11.196442 30.590956a25.960563 25.960563 0 0 1-18.255893 8.843291c-1.480208 0-10.703039 0-11.044626-13.6255a95.26464 95.26464 0 0 1 3.036323-21.406079c5.009933-21.481987 10.854855-39.73788 25.808747-39.73788 11.689844 0 16.699778 13.283914 11.651891 35.335212z m44.899629 2.125426c6.604003-28.807116-19.925871-2.542921-24.176724-12.031431-6.528095-14.802076-2.429059-44.899629-28.579392-54.919496-10.057821-3.795404-33.665234 1.138621-53.894737 19.584285-14.232765 13.24596-21.064492 31.236175-25.011712 48.581171s-8.767383 49.340252 20.38132 60.726464a59.322165 59.322165 0 0 0 26.112379 4.706301c29.338473-1.632024 51.693403-45.886434 68.317272-63.459155 12.790511-13.853225 15.181616 5.237658 16.927502-3.226093zM867.190151 464.064047c-18.97702-0.265678-25.315345-0.265678-47.44255 0.797035l-0.797035-1.632023c1.859748-8.349889 3.795404-16.62387 5.996738-25.087621l2.618829-11.386212c4.099036-17.838399 8.046256-38.561305 8.501705-44.823721 0.37954-3.795404 1.669978-13.321868-9.10897-13.321868a36.587695 36.587695 0 0 0-14.19481 4.440622c-2.618829 9.48851-8.008302 36.094292-10.665086 48.239585-5.313566 25.581023-5.693106 28.46553-8.122164 41.104226l-1.632024 1.707931c-19.35656-0.265678-26.036471-0.265678-48.315493 0.797035l-1.024759-1.821794c3.795404-15.181616 7.401038-30.363232 10.930763-45.544848a663.967976 663.967976 0 0 0 14.156857-77.88169l1.745886-1.290437c21.747665-2.998369 27.023277-3.605634 50.592736-8.463751l1.897702 2.239288-3.453818 13.132098c3.795404-2.391105 7.818532-4.782209 11.84166-6.907635a73.858562 73.858562 0 0 1 30.173462-7.021498c10.285545 0 21.633803 2.884507 26.567828 14.802076 4.402669 10.627131 1.442254 23.721275-4.51653 49.567976l-2.960416 13.132098c-6.148554 28.693254-7.097405 33.968866-10.361453 53.667013l-2.315196 1.707932zM1030.240707 238.730912l-15.637065 0.18977c-40.686731 0.455448-56.93106 0.265678-63.686879-0.531357l-1.707932 8.273981s-14.498443 67.558191-14.498443 67.634099l-36.511786 150.373907c35.449073-0.417494 50.061379-0.417494 56.134025 0.18977 1.404299-6.717865 9.67828-46.835285 9.754188-46.835285s7.021497-29.452335 7.590808-30.363232a17.231134 17.231134 0 0 1 4.440623-4.250853h3.226093c30.62891 0 65.280949 0 92.34218-20.001779a98.414826 98.414826 0 0 0 36.54974-58.449221 89.951075 89.951075 0 0 0 2.504967-20.38132 42.394663 42.394663 0 0 0-7.363084-25.960563c-13.853225-19.394514-41.293996-19.660193-73.137435-19.849963z m20.381319 70.328836a49.340252 49.340252 0 0 1-25.543069 33.665233c-10.323499 5.199703-22.772424 5.617198-35.942475 5.617198h-8.387843l0.607264-3.377909 15.523203-67.216605 0.37954-3.415864 0.379541-2.694737 6.1106 0.683173 32.754336 2.846553c12.600741 4.820163 17.800445 17.458858 14.156857 33.892958zM1384.617579 333.046701l-1.78384-2.011564c-23.189918 4.630393-27.402817 5.427428-48.770942 8.273981l-1.594069 1.556116c0 0.265678 0 0.683173-0.227725 0.986805v-0.303633c-15.940697 36.701557-15.40934 28.769162-28.351667 57.652187 0-1.328391 0-2.239288-0.189771-3.56768l-3.188139-62.586212-2.049518-2.011564c-24.290586 4.630393-24.935804 5.427428-47.404596 8.273981l-1.78384 1.556116c0 0.797035-0.227724 1.632024-0.341586 2.504966l0.18977 0.341587a325.266123 325.266123 0 0 1 4.934025 33.741141c1.328391 11.120534 3.036323 22.35493 4.288806 33.323647 2.277242 18.331801 3.529726 27.440771 6.186509 55.450853-15.181616 25.049666-18.78725 34.538176-33.247739 56.551519l0.797035 2.011564c21.975389-0.797035 27.023277-0.797035 43.267605-0.797034l3.605634-4.023129c12.259155-26.567828 105.739956-186.923647 105.739956-186.923647zM590.277475 348.569904c12.410971-8.653521 13.967087-20.646998 3.491772-26.795553s-29.224611-4.326761-41.749444 4.364715-14.005041 20.57109-3.453818 26.833506 29.148703 4.288807 41.749444-4.402668z" fill="#FFFFFF" p-id="5093"></path><path d="M1277.207645 522.171683l-18.445663 31.312083c-5.769014 10.665085-16.472053 18.673388-33.551371 18.749296l-29.110749-0.455449 8.501705-28.199852h5.655152a15.59911 15.59911 0 0 0 6.831727-1.024759 7.590808 7.590808 0 0 0 3.795404-3.302001l10.740993-17.079318z" fill="#FFFFFF" p-id="5094"></path><path d="M2208.941374 419.771683l42.053076-181.040771h-216.793476l17.344996-74.200148H1976.662649l-17.344996 74.50378h-66.723203c-40.610823 0.721127-83.271164 33.513417-83.271163 33.513417l7.590808-33.475463h-74.314011l-54.95745 237.326612h216.338028l-32.374796 139.78473h74.883321l32.374796-139.594959h163.202373c26.567828 0 44.861675-19.432468 44.861675-19.432469a77.578058 77.578058 0 0 0 22.013343-37.384729z m-292.777465 4.630393h-142.289696l31.008451-133.484359h142.289696z m220.133432-11.841661a19.16679 19.16679 0 0 1-16.016604 11.841661h-129.043737l30.970497-133.446405h142.441512zM2761.248565 559.480504l92.000593-394.94974h-360.563381c-40.838547 1.024759-83.498888 33.589325-83.498888 33.589325l7.818532-33.513417h-74.579688l-104.829059 451.653076h457.422091a64.711638 64.711638 0 0 0 42.166938-17.117272 78.07146 78.07146 0 0 0 24.062862-39.661972z m-72.112676-9.564418a18.97702 18.97702 0 0 1-16.775686 14.156857h-348.266271l80.880059-347.545145h361.474277z" fill="#4C4948" p-id="5095"></path><path d="M2435.337223 256.227724h282.605782l-12.183247 51.921127h-104.107932l-13.018235 56.096071h104.145885l-12.107338 51.921127h-104.107932l-13.05619 56.209933h38.219718a245.600593 245.600593 0 0 0-3.795404-37.574499h53.856783s1.669978 18.028169 1.290437 37.574499h14.346628l-11.955523 52.072943h-282.49192l12.069385-51.845219h103.842253l13.170052-56.589473h-103.880207l12.03143-51.693403h103.99407l12.980282-55.982209h-103.99407zM2911.242931 233.834841h23.30378s34.158636-2.580875 54.95745-69.342032h78.413047a281.163529 281.163529 0 0 1-16.889548 34.538177h97.845515l-12.107338 52.110897h-125.020608s-33.171831 35.79066-78.223277 35.79066h-34.614084zM3125.189854 299.571238l-12.069384 52.034989h-88.508822l-16.889547 72.833803h88.470867l-12.107339 52.110897h-88.698591l-16.472054 70.860192c-3.074277 16.81364 11.993477 16.699778 11.993477 16.699778h72.833803l-12.069385 51.845219h-113.103039c-18.559526-0.721127-26.947368-7.249222-26.947369-7.249222-20.039733-12.86642-11.84166-39.699926-11.84166-39.699926l21.368124-92.418087h-53.135656l12.107339-52.186805h53.135656l16.927502-72.795849h-53.135656l12.107339-52.034989zM3425.178587 345.229948l42.015122-180.699184h-134.091623c-38.713121 0-83.309118 33.703188-83.309118 33.703187l7.818532-33.703187h-74.579689l-93.746478 402.312824c-6.566049 24.859896 4.592439 36.018384 4.592438 36.018384 11.386212 13.929133 36.625649 12.980282 36.625649 12.980282h86.459303l12.107339-51.921127h-48.770941c-15.978651-1.138621-11.803706-16.62387-11.803707-16.62387l33.513417-143.656041h155.232024a58.221497 58.221497 0 0 0 35.866568-11.651891 80.842105 80.842105 0 0 0 32.071164-46.759377z m-179.750334-128.360563h134.964567l-9.640327 41.369903h-62.472349c-40.193328 2.429059-80.272795 33.171831-80.272795 33.171831z m103.652484 134.62298h-134.926613l9.564418-41.33195h134.926613z" fill="#4C4948" p-id="5096"></path><path d="M3236.888594 424.402076h74.351965l0.834989 36.1702h26.947368s9.754188 0 12.031431-8.160119l6.49014-27.896219h56.931061l-9.10897 39.282431s-3.795404 18.179985-16.81364 26.567828c0 0-11.955523 10.361453-40.914455 10.361453h-34.879763l0.872943 52.6043s0.569311 10.703039 13.891179 10.703039h54.350185l-12.031431 52.148851h-82.739807s-35.714752 1.745886-43.343514-15.826835a57.424463 57.424463 0 0 1-4.364714-24.442402zM3806.388965 216.603706l12.145293-52.186805h-94.8851c-40.876501 3.036323-81.107784 33.475463-81.107784 33.475464l7.590808-33.475464h-74.010378l-87.522016 377.18725h-26.833507l-12.03143 51.807265h172.652928l-5.275612 22.772424h74.503781l5.199703-22.430838h21.785619l12.031431-51.845218h-21.785619l75.52854-325.114307z m-171.931801 324.810675h-71.58132l17.079318-73.630838h71.619274z m29.072794-124.868792s-33.247739 0.455448-79.323943 32.982061l24.89785-107.030393h71.657227z m29.262565-125.931504s-33.285693 0.493403-79.28599 33.020014l24.973759-107.106301h71.619273zM3785.552197 342.421349l11.955522-51.465678h261.389474l-12.069385 51.465678h-93.328984l-11.386212 49.340252h93.442847l-11.993477 51.503633h-101.109563l-16.054559 26.567828h44.785768l13.018235 74.048332s3.415864 18.97702 12.942328 20.039733h18.104077l-12.145293 52.262713h-39.624018s-29.110749-0.265678-40.231282-17.38295c0 0-6.869681-9.10897-9.48851-28.883025l-10.816901-61.903039-37.95404 62.700074s-11.044626 20.722906-24.480356 31.198221c0 0-15.561156 14.688213-44.520089 14.232765h-54.008599l12.069385-51.807265h27.440771s10.892809 0.607265 21.899481-15.181616l64.521868-105.626093h-85.662269l11.955523-51.465678h93.594663l11.386212-49.340253zM4088.27362 164.530764h-81.145737a137.887027 137.887027 0 0 1-13.929133 29.869829s-10.361453 16.244329-38.295627 16.737732l-12.183246 52.072943h44.937583s33.437509 1.821794 62.396442-28.996887a167.984581 167.984581 0 0 0 38.219718-69.683617zM3827.111871 164.530764h81.183691s-2.618829 18.673388 0 29.869829c0 0 2.846553 16.244329 30.590957 16.737732l-11.955523 52.072943h-44.899629s-34.158636 1.821794-48.922758-28.996887c-0.18977-0.037954-14.346627-25.543069-5.996738-69.683617zM1799.227512 923.611564c-19.242698 9.146924-44.899629 17.838399-90.74811 17.838399-72.112676 0-116.101408-51.655448-98.870274-125.893551s85.358636-126.235137 157.395404-126.235137c50.592735 0 71.239733 11.65189 80.310749 17.800445l-22.772424 34.917717c-7.13536-3.605634-23.721275-13.815271-61.181913-13.815271-38.940845 0-87.522016 35.335211-99.591401 87.294292-11.65189 50.213195 20.153595 86.952706 59.09444 86.952706a173.829503 173.829503 0 0 0 69.038399-13.43573zM1929.296007 936.667754l24.024907-103.348851c3.795404-16.016605-1.176575-24.746034-19.7361-24.746034-14.194811 0-27.858265 8.729429-34.993625 12.752557l-26.757598 115.342328h-48.049815l58.52513-252.166642 49.340252-5.123795-26.188288 112.837361c7.590808-4.364715 31.805486-19.318606 59.853521-19.318607 31.312083 0 45.317124 19.318606 38.409489 49.340252l-26.567828 114.621201zM2105.820247 718.659748a34.158636 34.158636 0 0 1-30.363232 24.404448 19.432468 19.432468 0 0 1-18.711341-24.404448c2.998369-12.752557 17.38295-24.746034 30.363232-24.746034a19.622239 19.622239 0 0 1 18.711341 24.746034z m-14.118903 57.841957l-37.157005 160.128095h-47.708228l37.194959-160.128095zM2194.253161 936.667754l23.948999-103.348851c3.795404-16.016605-1.518162-24.746034-19.698147-24.746034-15.181616 0-27.858265 8.729429-35.031579 12.752557l-26.567828 115.342328h-47.82209l37.194959-160.128095h45.089399l-1.821793 15.675019c7.590808-4.364715 31.425945-19.318606 60.498739-19.318607 31.274129 0 45.544848 19.318606 38.485397 49.340252l-26.567828 114.621201zM2316.009721 940.273388c-32.03321 0-48.201631-19.622239-42.015122-46.190067 6.945589-29.831875 37.081097-53.135656 78.26123-54.95745l34.158636-1.062713 1.897702-8.046257c3.264047-14.156857 0.607265-26.150334-24.138769-26.150333a130.86553 130.86553 0 0 0-47.822091 9.792142l-4.51653-24.366494a186.961601 186.961601 0 0 1 73.668791-16.396145c38.257672 0 59.360119 18.59748 52.110897 49.871609l-20.571089 88.774499a67.861824 67.861824 0 0 0-0.417495 25.125575h-49.909563a39.73788 39.73788 0 0 1 0-14.232765c-9.374648 6.224463-26.68169 17.838399-50.706597 17.838399z m64.749592-78.223277l-23.30378 1.859748c-14.574351 1.404299-34.765901 6.869681-38.978799 25.087621-4.061082 17.458858 11.386212 19.660193 20.229503 19.660192 12.676649 0 26.340104-8.729429 34.158636-13.132098zM2730.316022 852.979096c-11.575982 49.833655-57.272646 88.394959-123.122906 88.394959s-94.088065-36.701557-82.01868-88.394959l36.853372-159.027428h51.693403l-35.524981 152.802965c-8.349889 36.056338 2.580875 56.437658 40.459006 56.437658s59.853521-29.110749 66.153892-56.437658l35.524981-152.802965h46.911194zM2850.630329 936.667754l23.948999-103.348851c3.795404-16.016605-1.480208-24.746034-19.698147-24.746034-15.181616 0-27.820311 8.729429-34.955671 12.752557l-26.757598 115.342328h-47.708228l37.194959-160.128095h45.127354l-1.821794 15.675019c7.590808-4.364715 31.350037-19.318606 60.49874-19.318607 31.350037 0 45.544848 19.318606 38.447442 49.340252l-26.567828 114.621201zM3030.380662 718.659748a34.158636 34.158636 0 0 1-30.363232 24.404448 19.35656 19.35656 0 0 1-18.673387-24.404448c2.922461-12.752557 17.38295-24.746034 30.097553-24.746034a19.622239 19.622239 0 0 1 18.939066 24.746034z m-14.118902 57.841957l-37.19496 160.128095h-47.670274l37.194959-160.128095zM3205.804235 856.622683c-11.917569 51.313862-62.358488 83.498888-111.167383 83.498889s-84.144107-32.336842-72.112676-83.498889 62.396442-83.726612 111.091475-83.726612 84.068199 32.41275 72.188584 83.726612z m-132.83914 0c-6.376279 27.251001 0.303632 52.034989 28.996887 52.034989 24.024907 0 46.152113-24.783988 52.490437-52.034989s-4.288807-52.072943-28.313714-52.072942c-28.693254 0-46.721423 24.404448-53.17361 52.072942zM3317.123435 936.667754l23.986953-103.348851c3.795404-16.016605-1.518162-24.746034-19.736101-24.746034-15.181616 0-27.858265 8.729429-34.955671 12.752557l-26.795552 115.342328h-47.63232l37.157005-160.128095h45.051446l-1.78384 15.675019c7.590808-4.364715 31.425945-19.318606 60.536694-19.318607 31.274129 0 45.544848 19.318606 38.409488 49.340252l-26.567828 114.621201zM3480.553531 776.539659l-0.834989 13.132098a95.795997 95.795997 0 0 1 53.325427-16.775686c43.647146 0 67.747961 29.528243 55.944255 80.424611-12.600741 54.274277-56.93106 86.952706-96.972573 86.952706-28.731208 0-40.269236-6.869681-45.089399-9.450556l-20.798814 89.495626h-47.708229l56.627428-243.778799z m6.641957 132.83914c18.521572 0 41.028317-15.181616 50.289103-55.261082 8.957153-38.599259-7.590808-48.429355-26.226241-48.429355-16.699778 0-31.501853 8.767383-38.219719 12.752557l-19.432468 83.688658c5.465382 2.884507 14.080949 7.211268 33.589325 7.211268zM3635.747601 940.273388c-32.03321 0-48.201631-19.622239-42.053076-46.190067 6.907635-29.831875 37.081097-53.135656 78.26123-54.95745l34.158636-1.062713 1.859748-8.046257c3.339956-14.156857 0.645219-26.150334-24.138769-26.150333a130.372128 130.372128 0 0 0-47.822091 9.67828l-4.516531-24.366494a186.240474 186.240474 0 0 1 73.668792-16.396145c38.219718 0 59.360119 18.59748 52.110897 49.871609l-20.609044 88.774499a68.544996 68.544996 0 0 0-0.37954 25.125575h-49.871609a40.648777 40.648777 0 0 1 0-14.232765c-9.374648 6.338325-26.68169 17.952261-50.668643 17.952261z m64.749592-78.223277l-23.341734 1.859748c-14.536397 1.404299-34.727947 6.869681-38.9788 25.087621-4.023128 17.458858 11.386212 19.660193 20.19155 19.660192 12.790511 0 26.567828-8.729429 34.158636-13.132098z" fill="#4C4948" p-id="5097"></path><path d="M3817.509499 977.392439c-16.282283 26.188288-34.462268 46.607561-64.521868 46.607561-29.110749 0-37.95404-6.945589-45.544848-11.386212l18.255893-28.351668a63.610971 63.610971 0 0 0 26.226241 6.186509c18.217939 0 25.770793-13.853225 40.231283-33.81705l10.854855-17.19318-29.072794-162.974648h49.112527l15.675019 108.055152 64.521868-108.055152h41.066271z" fill="#4C4948" p-id="5098"></path></svg>